<?xml version="1.0" standalone="no"?>
<!DOCTYPE svg PUBLIC "-//W3C//DTD SVG 20010904//EN"
 "http://www.w3.org/TR/2001/REC-SVG-20010904/DTD/svg10.dtd">
<svg version="1.0" xmlns="http://www.w3.org/2000/svg"
 width="700.000000pt" height="700.000000pt" viewBox="0 0 700.000000 700.000000"
 preserveAspectRatio="xMidYMid meet">
<metadata>
Created by potrace 1.14, written by Peter Selinger 2001-2017
</metadata>
<g transform="translate(0.000000,700.000000) scale(0.100000,-0.100000)"
fill="#000000" stroke="none">
<path d="M2575 6053 c-91 -32 -182 -88 -225 -142 -33 -39 -60 -115 -60 -165 1
-62 30 -167 72 -257 40 -87 41 -93 24 -103 -225 -133 -377 -248 -521 -393
-279 -281 -495 -620 -604 -950 -305 -919 80 -1994 910 -2539 180 -119 413
-224 628 -285 245 -69 559 -95 827 -68 523 51 1017 299 1421 711 l122 125 63
-44 c91 -63 172 -101 257 -119 80 -16 264 -24 277 -11 14 13 -26 74 -104 157
-86 93 -171 157 -265 199 -39 17 -67 36 -67 45 0 23 46 53 107 71 76 22 86 18
100 -39 7 -26 19 -59 28 -72 36 -56 169 -130 284 -160 55 -14 250 -35 259 -28
18 13 -126 165 -303 321 l-70 61 23 22 c21 20 23 28 17 74 -4 28 -13 71 -21
95 l-13 44 43 56 c58 75 79 118 110 232 31 117 33 139 7 139 -46 0 -270 -147
-285 -187 -4 -9 -9 -13 -12 -11 -3 3 4 53 15 111 30 157 44 368 37 557 -9 246
-44 431 -123 652 -25 72 -32 103 -24 106 36 12 139 92 164 127 126 182 30 574
-171 693 -43 25 -56 27 -147 27 -122 0 -167 -18 -253 -105 l-58 -57 -49 45
c-66 60 -260 204 -387 289 -124 81 -448 247 -573 292 -126 45 -286 70 -528 80
-114 5 -210 11 -213 13 -2 3 -11 31 -19 63 -9 32 -28 80 -42 107 -39 72 -146
173 -223 211 -62 31 -69 32 -210 35 -136 2 -150 1 -225 -25z m1055 -557 c232
-7 414 -60 690 -202 323 -167 507 -311 723 -568 220 -263 344 -504 427 -831
85 -336 91 -632 19 -985 l-12 -55 -17 73 c-9 40 -20 75 -23 78 -10 10 -101
-62 -163 -129 -33 -34 -72 -90 -89 -122 -28 -56 -30 -69 -33 -197 l-4 -136
-71 -27 c-38 -14 -74 -22 -78 -18 -4 4 -19 40 -34 78 -88 235 -256 406 -540
547 -210 105 -314 120 -1025 148 -700 28 -954 51 -1169 106 -187 48 -406 178
-506 300 -119 145 -191 389 -211 710 -5 95 -4 115 11 145 226 438 665 802
1185 984 206 72 321 96 485 104 83 3 182 5 220 4 39 -2 135 -5 215 -7z"/>
<path d="M3315 4633 c-232 -52 -525 -246 -604 -400 -30 -59 -28 -134 4 -189
49 -84 181 -154 290 -154 74 0 164 31 324 112 l135 68 90 0 c139 1 271 16 300
35 14 9 35 37 47 62 43 88 6 225 -85 315 -53 54 -178 119 -271 143 -55 14
-184 19 -230 8z"/>
<path d="M4638 4070 c-59 -32 -91 -82 -96 -148 -4 -56 3 -83 57 -233 11 -30
25 -87 31 -125 17 -111 21 -124 43 -146 60 -57 187 -77 257 -39 77 40 140 172
140 290 -1 170 -92 342 -209 394 -67 30 -175 33 -223 7z"/>
<path d="M4048 3733 c-28 -32 -30 -60 -9 -109 12 -25 34 -62 51 -80 16 -19 30
-45 30 -58 0 -51 -32 -124 -80 -185 -56 -69 -60 -98 -12 -86 79 20 146 114
159 225 l6 50 51 0 c52 0 107 24 133 59 38 50 -7 113 -121 167 -84 40 -181 48
-208 17z"/>
</g>
</svg>
